<svg width="40" height="40" viewBox="0 0 40 40" fill="none" xmlns="http://www.w3.org/2000/svg">
<g clip-path="url(#clip0_16_17)">
<path d="M20 40C31.0457 40 40 31.0457 40 20C40 8.9543 31.0457 0 20 0C8.9543 0 0 8.9543 0 20C0 31.0457 8.9543 40 20 40Z" fill="#E8E8E8"/>
<path d="M11.4313 26.7875V20.6812H19.0625L11.4313 26.7875Z" fill="black"/>
<path d="M12.0188 21.875H27.9688C30.8 21.875 33.1188 19.5563 33.1188 16.725V10.775C33.1188 7.94375 30.8 5.625 27.9688 5.625H12.0188C9.18752 5.625 6.86877 7.94375 6.86877 10.775V16.725C6.86877 19.5563 9.18752 21.875 12.0188 21.875Z" fill="black"/>
<path d="M11.4938 14.725C11.7875 14.9188 12.3063 15.1188 12.8063 15.1188C13.5313 15.1188 13.8688 14.7563 13.8688 14.3063C13.8688 13.8313 13.5875 13.5688 12.85 13.3C11.8688 12.95 11.4 12.4063 11.4 11.75C11.4 10.8688 12.1125 10.1438 13.2875 10.1438C13.8438 10.1438 14.325 10.3 14.6313 10.4813L14.3813 11.2063C14.1688 11.0688 13.7688 10.8875 13.2625 10.8875C12.675 10.8875 12.3438 11.225 12.3438 11.6313C12.3438 12.0813 12.6688 12.2875 13.3813 12.5563C14.3313 12.9188 14.8188 13.3938 14.8188 14.2063C14.8188 15.1688 14.075 15.8438 12.775 15.8438C12.175 15.8438 11.6188 15.6938 11.2375 15.4688L11.4938 14.725Z" fill="white"/>
<path d="M16.1062 11.7563C16.1062 11.1938 16.0938 10.725 16.0625 10.275H16.9312L16.975 11.1563H17.0062C17.3125 10.6375 17.8187 10.15 18.725 10.15C19.4687 10.15 20.0375 10.6 20.275 11.25H20.3C20.4687 10.9438 20.6812 10.7063 20.9125 10.5375C21.2437 10.2875 21.6 10.15 22.125 10.15C22.85 10.15 23.925 10.625 23.925 12.525V15.75H22.95V12.65C22.95 11.6 22.5625 10.9625 21.7625 10.9625C21.2 10.9625 20.7562 11.3813 20.5875 11.8688C20.5437 12.0063 20.5063 12.1875 20.5063 12.3688V15.75H19.5312V12.4688C19.5312 11.6 19.15 10.9625 18.3875 10.9625C17.7687 10.9625 17.3125 11.4625 17.1563 11.9563C17.1 12.1063 17.075 12.275 17.075 12.4438V15.7438H16.1V11.7563H16.1062Z" fill="white"/>
<path d="M25.4063 14.725C25.7 14.9188 26.2188 15.1188 26.7188 15.1188C27.4438 15.1188 27.7813 14.7563 27.7813 14.3063C27.7813 13.8313 27.5 13.5688 26.7625 13.3C25.7813 12.95 25.3125 12.4063 25.3125 11.75C25.3125 10.8688 26.025 10.1438 27.2 10.1438C27.7563 10.1438 28.2375 10.3 28.5438 10.4813L28.2938 11.2063C28.0813 11.0688 27.6813 10.8875 27.175 10.8875C26.5875 10.8875 26.2563 11.225 26.2563 11.6313C26.2563 12.0813 26.5813 12.2875 27.2938 12.5563C28.2438 12.9188 28.7313 13.3938 28.7313 14.2063C28.7313 15.1688 27.9875 15.8438 26.6875 15.8438C26.0875 15.8438 25.5313 15.6938 25.15 15.4688L25.4063 14.725Z" fill="white"/>
<path d="M34.05 28.7625H21.1687C20.525 28.7625 20 28.2375 20 27.5938V19.3938C20 18.75 20.525 18.225 21.1687 18.225H34.05C34.6937 18.225 35.2187 18.75 35.2187 19.3938V27.5875C35.2187 28.2375 34.6937 28.7625 34.05 28.7625Z" fill="white"/>
<path d="M31.7063 32.275V27.5938H25.8501L31.7063 32.275Z" fill="white"/>
<path d="M28.1938 21.7375H27.025V22.9063H28.1938V21.7375Z" fill="black"/>
<path d="M25.85 21.7375H24.6813V22.9063H25.85V21.7375Z" fill="black"/>
<path d="M23.5063 21.7375H22.3375V22.9063H23.5063V21.7375Z" fill="black"/>
<path d="M30.5313 21.7375H29.3625V22.9063H30.5313V21.7375Z" fill="black"/>
<path d="M32.875 21.7375H31.7063V22.9063H32.875V21.7375Z" fill="black"/>
<path d="M28.1938 24.0813H27.025V25.25H28.1938V24.0813Z" fill="black"/>
<path d="M30.5313 24.0813H29.3625V25.25H30.5313V24.0813Z" fill="black"/>
<path d="M32.875 24.0813H31.7063V25.25H32.875V24.0813Z" fill="black"/>
</g>
<defs>
<clipPath id="clip0_16_17">
<rect width="40" height="40" fill="white"/>
</clipPath>
</defs>
</svg>
